<svg width="38" height="24" viewBox="0 0 38 24" fill="none" xmlns="http://www.w3.org/2000/svg">
<g clip-path="url(#clip0_24_834)">
<path opacity="0.07" d="M35 0H3C1.3 0 0 1.3 0 3V21C0 22.7 1.4 24 3 24H35C36.7 24 38 22.7 38 21V3C38 1.3 36.6 0 35 0Z" fill="#0A2540"/>
<path d="M35 1C36.1 1 37 1.9 37 3V21C37 22.1 36.1 23 35 23H3C1.9 23 1 22.1 1 21V3C1 1.9 1.9 1 3 1H35Z" fill="#5A31F4"/>
<path d="M21.3821 9.71305C21.3821 11.3811 20.2051 12.5711 18.5611 12.5711H17.0121C16.9865 12.5714 16.9616 12.5792 16.9403 12.5934C16.919 12.6076 16.9023 12.6276 16.8921 12.6511C16.8856 12.6666 16.8822 12.6832 16.8821 12.7001V14.8921C16.8821 14.9091 16.8787 14.9259 16.8722 14.9417C16.8656 14.9574 16.8561 14.9716 16.844 14.9836C16.8319 14.9956 16.8175 15.0051 16.8018 15.0115C16.786 15.0179 16.7691 15.0212 16.7521 15.0211H15.6681C15.6336 15.0211 15.6006 15.0074 15.5762 14.983C15.5518 14.9586 15.5381 14.9255 15.5381 14.8911V6.98605C15.5377 6.9603 15.5451 6.93503 15.5594 6.91359C15.5737 6.89216 15.5942 6.87558 15.6181 6.86605C15.6339 6.85943 15.6509 6.85603 15.6681 6.85605H18.5681C20.2051 6.85605 21.3821 8.04605 21.3821 9.71405V9.71305ZM20.0301 9.71305C20.0301 8.75505 19.3721 8.05505 18.4801 8.05505H17.0121C16.995 8.05505 16.9781 8.05841 16.9624 8.06495C16.9466 8.07148 16.9323 8.08106 16.9202 8.09313C16.9081 8.1052 16.8985 8.11953 16.892 8.1353C16.8855 8.15108 16.8821 8.16798 16.8821 8.18505V11.2351C16.8819 11.2522 16.8852 11.2691 16.8917 11.2849C16.8982 11.3007 16.9079 11.3151 16.9201 11.3271C16.9322 11.3392 16.9465 11.3488 16.9623 11.3553C16.9781 11.3618 16.995 11.3651 17.0121 11.3651H18.4801C19.3721 11.3701 20.0301 10.6701 20.0301 9.71305ZM21.7041 13.5041C21.6927 13.2479 21.746 12.9929 21.859 12.7627C21.9721 12.5326 22.1413 12.3346 22.3511 12.1871C22.7741 11.8711 23.4351 11.7071 24.4061 11.6731L25.4391 11.6371V11.3341C25.4391 10.7271 25.0291 10.4711 24.3711 10.4711C23.7131 10.4711 23.2961 10.7021 23.2011 11.0811C23.193 11.1077 23.1764 11.1309 23.1538 11.1472C23.1312 11.1634 23.1039 11.1718 23.0761 11.1711H22.0541C22.026 11.1714 21.9985 11.1626 21.9758 11.1461C21.953 11.1295 21.9363 11.106 21.9281 11.0791C21.9227 11.0612 21.9213 11.0425 21.9241 11.0241C22.0761 10.1261 22.8281 9.44405 24.4181 9.44405C26.1101 9.44405 26.7211 10.2271 26.7211 11.7201V14.8921C26.721 14.9092 26.7174 14.9262 26.7107 14.942C26.704 14.9577 26.6942 14.972 26.682 14.984C26.6697 14.996 26.6552 15.0055 26.6392 15.0118C26.6233 15.0182 26.6063 15.0213 26.5891 15.0211H25.5591C25.5246 15.0211 25.4916 15.0074 25.4672 14.983C25.4428 14.9586 25.4291 14.9255 25.4291 14.8911V14.6551C25.4294 14.6355 25.4238 14.6163 25.4129 14.6C25.402 14.5837 25.3863 14.5712 25.3681 14.5641C25.3501 14.5569 25.3303 14.5552 25.3113 14.5592C25.2923 14.5631 25.2749 14.5724 25.2611 14.5861C24.9511 14.9201 24.4531 15.1611 23.6541 15.1611C22.4791 15.1611 21.7041 14.5541 21.7041 13.5041ZM25.4391 12.8171V12.5711L24.1001 12.6411C23.3951 12.6771 22.9851 12.9671 22.9851 13.4571C22.9851 13.9011 23.3611 14.1471 24.0191 14.1471C24.9121 14.1471 25.4391 13.6671 25.4391 12.8171ZM27.7551 17.4171V16.4981C27.7554 16.4788 27.7599 16.4598 27.7684 16.4425C27.7768 16.4252 27.789 16.4101 27.8041 16.3981C27.8191 16.386 27.8365 16.3773 27.8551 16.3726C27.8738 16.3679 27.8932 16.3674 27.9121 16.3711C28.0701 16.4001 28.2301 16.4151 28.3911 16.4151C28.6669 16.4302 28.9397 16.3519 29.1656 16.193C29.3914 16.0341 29.5572 15.8037 29.6361 15.5391L29.7031 15.3281C29.7131 15.2996 29.7131 15.2685 29.7031 15.2401L27.5581 9.76905C27.5457 9.73903 27.5449 9.70543 27.556 9.67489C27.5671 9.64435 27.5893 9.61908 27.6181 9.60405C27.6372 9.59398 27.6585 9.58883 27.6801 9.58905H28.7201C28.7468 9.58912 28.7728 9.59728 28.7948 9.61246C28.8168 9.62763 28.8336 9.64911 28.8431 9.67405L30.2991 13.5331C30.3081 13.559 30.325 13.5814 30.3474 13.5972C30.3699 13.613 30.3967 13.6213 30.4241 13.6211C30.4515 13.621 30.4781 13.6126 30.5005 13.5968C30.5229 13.5811 30.5398 13.5588 30.5491 13.5331L31.8141 9.68505C31.8227 9.65852 31.8396 9.63545 31.8622 9.61925C31.8849 9.60304 31.9122 9.59456 31.9401 9.59505H33.0161C33.0484 9.59524 33.0795 9.60708 33.1038 9.62839C33.128 9.64971 33.1438 9.67906 33.1481 9.71105C33.1505 9.73239 33.1478 9.754 33.1401 9.77405L30.8451 15.8501C30.3171 17.2631 29.4121 17.6231 28.4151 17.6231C28.2259 17.6283 28.0369 17.606 27.8541 17.5571C27.8235 17.5495 27.7965 17.5313 27.7782 17.5056C27.7598 17.4799 27.7513 17.4485 27.7541 17.4171H27.7551ZM8.5701 6.40005C7.2056 6.38985 5.88852 6.90016 4.8871 7.82705C4.84449 7.86581 4.81789 7.91908 4.81253 7.97643C4.80716 8.03378 4.82342 8.09107 4.8581 8.13705L5.4761 8.97605C5.49613 9.00434 5.52214 9.02787 5.55228 9.04498C5.58243 9.06208 5.61598 9.07233 5.65053 9.075C5.68509 9.07768 5.71981 9.07271 5.75223 9.06044C5.78465 9.04818 5.81397 9.02893 5.8381 9.00405C6.19803 8.64665 6.62547 8.36444 7.09554 8.17387C7.56561 7.9833 8.06891 7.88818 8.5761 7.89405C10.6961 7.89405 11.8031 9.47805 11.8031 11.0441C11.8031 12.7441 10.6401 13.9421 8.9681 13.9651C7.6761 13.9651 6.7021 13.1151 6.7021 11.9911C6.70321 11.7068 6.7678 11.4264 6.89116 11.1704C7.01452 10.9143 7.19353 10.6891 7.4151 10.5111C7.46228 10.4724 7.49223 10.4166 7.49841 10.3559C7.5046 10.2952 7.48651 10.2345 7.4481 10.1871L6.7981 9.37205C6.77848 9.34699 6.75399 9.32617 6.72611 9.31082C6.69822 9.29547 6.66752 9.28592 6.63586 9.28275C6.60419 9.27957 6.5722 9.28283 6.54183 9.29234C6.51145 9.30184 6.48331 9.31739 6.4591 9.33805C6.061 9.65739 5.73918 10.0615 5.5171 10.5211C5.29582 10.9795 5.18063 11.482 5.1801 11.9911C5.1801 13.9261 6.8351 15.4431 8.9551 15.4551H8.9851C11.5021 15.4231 13.3221 13.5711 13.3221 11.0401C13.3221 8.79305 11.6551 6.40005 8.5701 6.40005Z" fill="white"/>
</g>
<defs>
<clipPath id="clip0_24_834">
<rect width="38" height="24" fill="white"/>
</clipPath>
</defs>
</svg>
