<svg width="38" height="24" viewBox="0 0 38 24" fill="none" xmlns="http://www.w3.org/2000/svg">
<g clip-path="url(#clip0_24_872)">
<path d="M35 0C36.1 0 37 0.940909 37 2.09091V20.9091C37 22.0591 36.1 23 35 23H3C1.9 23 1 22.0591 1 20.9091V2.09091C1 0.940909 1.9 0 3 0H35Z" fill="#FFB3C7"/>
<path fill-rule="evenodd" clip-rule="evenodd" d="M34.1174 12.9759C33.63 12.9759 33.2349 13.377 33.2349 13.8719C33.2349 14.3666 33.63 14.7678 34.1174 14.7678C34.6048 14.7678 35 14.3667 35 13.8719C35 13.377 34.6048 12.9759 34.1174 12.9759ZM31.2139 12.2832C31.2139 11.6058 30.6435 11.0567 29.9399 11.0567C29.2362 11.0567 28.6658 11.6058 28.6658 12.2832C28.6658 12.9607 29.2362 13.5099 29.9399 13.5099C30.6436 13.5099 31.2139 12.9607 31.2139 12.2832ZM31.2186 9.89931H32.6246V14.667H31.2186V14.3623C30.8213 14.6373 30.3419 14.799 29.8247 14.799C28.4562 14.799 27.3467 13.6727 27.3467 12.2832C27.3467 10.8938 28.4562 9.76752 29.8247 9.76752C30.3419 9.76752 30.8214 9.92918 31.2186 10.2043V9.89929V9.89931ZM19.9663 10.5203V9.89937H18.5267V14.667H19.9695V12.4411C19.9695 11.6901 20.7713 11.2864 21.3276 11.2864C21.3333 11.2864 21.3386 11.287 21.3443 11.287V9.89975C20.7733 9.89975 20.2481 10.148 19.9662 10.5204L19.9663 10.5203ZM16.3803 12.2833C16.3803 11.6058 15.8098 11.0567 15.1062 11.0567C14.4026 11.0567 13.8321 11.6058 13.8321 12.2833C13.8321 12.9607 14.4026 13.51 15.1062 13.51C15.8099 13.51 16.3803 12.9607 16.3803 12.2833ZM16.3849 9.89932H17.791V14.667H16.3849V14.3623C15.9877 14.6373 15.5082 14.799 14.9911 14.799C13.6225 14.799 12.513 13.6727 12.513 12.2832C12.513 10.8938 13.6225 9.76753 14.9911 9.76753C15.5082 9.76753 15.9877 9.9292 16.3849 10.2043V9.89931V9.89932ZM24.8482 9.77109C24.2865 9.77109 23.7549 9.94812 23.3995 10.4365V9.89961H21.9995V14.6671H23.4167V12.1616C23.4167 11.4366 23.8956 11.0816 24.4722 11.0816C25.0902 11.0816 25.4455 11.4564 25.4455 12.1518V14.6671H26.8499V11.6352C26.8499 10.5257 25.9809 9.77117 24.8482 9.77117V9.77109ZM10.4649 14.6671H11.9366V7.7747H10.4649V14.6671ZM4 14.669H5.55837V7.77345H4V14.669ZM9.45065 7.77345C9.45065 9.26627 8.87761 10.655 7.85652 11.6872L10.0106 14.6692H8.08584L5.7448 11.4284L6.34899 10.969C7.35095 10.2071 7.92565 9.04237 7.92565 7.77344H9.45066L9.45065 7.77345Z" fill="#0A0B09"/>
</g>
<defs>
<clipPath id="clip0_24_872">
<rect width="38" height="24" fill="white"/>
</clipPath>
</defs>
</svg>
