<svg width="38" height="24" viewBox="0 0 38 24" fill="none" xmlns="http://www.w3.org/2000/svg">
<g clip-path="url(#clip0_24_852)">
<path opacity="0.07" d="M35 0H3C1.3 0 0 1.3 0 3V21C0 22.7 1.4 24 3 24H35C36.7 24 38 22.7 38 21V3C38 1.3 36.6 0 35 0Z" fill="#0A2540"/>
<path d="M35 1C36.1 1 37 1.9 37 3V21C37 22.1 36.1 23 35 23H3C1.9 23 1 22.1 1 21V3C1 1.9 1.9 1 3 1H35Z" fill="white"/>
<path d="M18.0927 11.9762V15.1762H17.0747V7.27623H19.7657C20.0881 7.27077 20.4085 7.3291 20.7083 7.44786C21.0081 7.56661 21.2815 7.74346 21.5127 7.96823C21.7317 8.17262 21.9083 8.41818 22.0324 8.69087C22.1565 8.96355 22.2256 9.25802 22.2358 9.55743C22.2461 9.85685 22.1972 10.1553 22.092 10.4358C21.9868 10.7164 21.8273 10.9734 21.6227 11.1922L21.5127 11.3082C21.0427 11.7552 20.4147 11.9982 19.7657 11.9822L18.0927 11.9762ZM18.0927 8.24423V11.0322H19.7907C20.1677 11.0442 20.5317 10.8972 20.7957 10.6282C20.9845 10.4314 21.1113 10.1834 21.1603 9.91506C21.2093 9.64673 21.1783 9.36992 21.0712 9.11906C20.9641 8.8682 20.7857 8.65436 20.558 8.50415C20.3303 8.35394 20.0635 8.27398 19.7907 8.27423L18.0927 8.24423ZM24.5767 9.59223C25.2267 9.56223 25.8627 9.78023 26.3547 10.2052C26.7997 10.6352 27.0367 11.2352 27.0047 11.8542V15.1882H26.0357V14.4222H25.9867C25.8129 14.7095 25.5672 14.9465 25.2738 15.1098C24.9804 15.2731 24.6495 15.357 24.3137 15.3532C23.7656 15.371 23.2311 15.1805 22.8177 14.8202C22.6218 14.6605 22.4649 14.4582 22.3587 14.2289C22.2525 13.9995 22.1998 13.749 22.2047 13.4962C22.1932 13.2408 22.2428 12.9864 22.3494 12.754C22.456 12.5216 22.6166 12.318 22.8177 12.1602C23.3111 11.8054 23.9083 11.6243 24.5157 11.6452C25.0327 11.6252 25.5457 11.7382 26.0057 11.9762V11.7682C26.0091 11.5963 25.9733 11.4258 25.901 11.2697C25.8288 11.1136 25.722 10.976 25.5887 10.8672C25.321 10.6239 24.9704 10.4922 24.6087 10.4992C24.346 10.4968 24.0871 10.5613 23.8563 10.6868C23.6255 10.8122 23.4305 10.9944 23.2897 11.2162L22.3947 10.6522C22.6377 10.304 22.9658 10.0238 23.3478 9.83828C23.7297 9.65274 24.1528 9.56803 24.5767 9.59223ZM23.2897 13.5202C23.2873 13.6497 23.3168 13.7779 23.3755 13.8933C23.4343 14.0088 23.5206 14.108 23.6267 14.1822C23.8497 14.3582 24.1267 14.4512 24.4117 14.4452C24.8407 14.4442 25.2517 14.2752 25.5577 13.9732C25.8627 13.6872 26.0357 13.2882 26.0357 12.8702C25.6507 12.5965 25.183 12.4644 24.7117 12.4962C24.3458 12.4818 23.9849 12.5848 23.6817 12.7902C23.5616 12.8706 23.4631 12.9791 23.3948 13.1064C23.3264 13.2337 23.2903 13.3758 23.2897 13.5202ZM32.5757 9.77023L29.1857 17.5602H28.1377L29.4187 14.8322L27.1947 9.77023H28.2977L29.9097 13.6552L31.4787 9.77023H32.5757Z" fill="#5F6368"/>
<path d="M13.986 11.2843C13.986 10.9763 13.962 10.6683 13.913 10.3643H9.62305V12.1113H12.074C12.0241 12.3889 11.9187 12.6536 11.7641 12.8895C11.6094 13.1255 11.4087 13.3277 11.174 13.4843V14.6183H12.638C13.0832 14.1875 13.4331 13.6683 13.6653 13.0941C13.8975 12.5198 14.0067 11.9033 13.986 11.2843Z" fill="#4285F4"/>
<path d="M9.62915 15.7209C10.7355 15.7513 11.8118 15.359 12.6391 14.6239L11.1731 13.4839C10.8209 13.7098 10.4218 13.8523 10.0062 13.9008C9.59055 13.9492 9.16936 13.9022 8.77463 13.7633C8.3799 13.6245 8.02204 13.3975 7.72824 13.0995C7.43444 12.8016 7.21245 12.4406 7.07915 12.0439H5.57715V13.2139C5.953 13.967 6.5312 14.6004 7.2469 15.0432C7.96261 15.486 8.78753 15.7207 9.62915 15.7209Z" fill="#34A853"/>
<path d="M7.07893 12.05C6.88872 11.4873 6.88872 10.8777 7.07893 10.315V9.14502H5.57693C5.25672 9.77647 5.08984 10.4745 5.08984 11.1825C5.08984 11.8905 5.25672 12.5886 5.57693 13.22L7.07893 12.05Z" fill="#FBBC04"/>
<path d="M9.62915 8.44019C10.2762 8.42837 10.9016 8.6728 11.3691 9.12019L12.6691 7.82719C11.8402 7.0492 10.7408 6.62485 9.60415 6.64419C8.76752 6.64838 7.94839 6.88419 7.23758 7.32547C6.52677 7.76674 5.95206 8.39625 5.57715 9.14419L7.07915 10.3152C7.25477 9.77527 7.59524 9.304 8.05266 8.96766C8.51007 8.63132 9.06142 8.44685 9.62915 8.44019Z" fill="#EA4335"/>
</g>
<defs>
<clipPath id="clip0_24_852">
<rect width="38" height="24" fill="white"/>
</clipPath>
</defs>
</svg>
