<svg width="38" height="24" viewBox="0 0 38 24" fill="none" xmlns="http://www.w3.org/2000/svg">
<g clip-path="url(#clip0_24_866)">
<path d="M34.3869 0H3.61263C3.48444 0 3.35602 0 3.22805 0.00067947C3.12002 0.00158543 3.01221 0.00271788 2.90417 0.00566225C2.66885 0.012004 2.43149 0.0260463 2.19911 0.0677205C1.96606 0.107648 1.74026 0.182074 1.52915 0.288548C1.10475 0.504411 0.759782 0.849374 0.543919 1.27378C0.437255 1.48497 0.362821 1.71095 0.323092 1.94419C0.280964 2.17679 0.267149 2.41393 0.260807 2.64903C0.258047 2.75697 0.256386 2.86493 0.255824 2.97291C0.255371 3.10065 0.255371 3.22884 0.255371 3.35726V20.6425C0.255371 20.7709 0.255371 20.8989 0.255824 21.0273C0.256504 21.1351 0.257862 21.2432 0.260807 21.3512C0.267149 21.5858 0.281191 21.8232 0.323092 22.0556C0.362739 22.2888 0.437098 22.5148 0.543693 22.726C0.650864 22.9369 0.790755 23.1296 0.958169 23.2967C1.1253 23.4642 1.31794 23.6041 1.52892 23.7112C1.74341 23.8206 1.9631 23.8902 2.19933 23.9325C2.43149 23.974 2.66885 23.988 2.90417 23.9943C3.01221 23.9968 3.12002 23.9982 3.22805 23.9989C3.35602 23.9998 3.48444 23.9998 3.61263 23.9998H34.3869C34.5149 23.9998 34.6433 23.9998 34.7713 23.9989C34.8791 23.9984 34.9869 23.9968 35.0954 23.9943C35.3303 23.988 35.5676 23.974 35.8005 23.9325C36.0336 23.8925 36.2594 23.818 36.4704 23.7112C36.8946 23.4951 37.2395 23.1502 37.4557 22.726C37.565 22.5115 37.6344 22.2918 37.6763 22.0556C37.7184 21.8232 37.732 21.5858 37.7383 21.3512C37.7413 21.2432 37.7428 21.1351 37.7433 21.0273C37.7442 20.8989 37.7442 20.7709 37.7442 20.6425V3.35749C37.7442 3.22907 37.7442 3.10087 37.7433 2.97268C37.7429 2.86478 37.7412 2.75689 37.7383 2.64903C37.732 2.41393 37.7184 2.17679 37.6763 1.94419C37.6368 1.71091 37.5624 1.4849 37.4557 1.27378C37.2397 0.849448 36.8948 0.504513 36.4704 0.288548C36.2593 0.182184 36.0335 0.107836 35.8005 0.067947C35.5676 0.0260463 35.3303 0.0122305 35.0954 0.00588874C34.9874 0.00314533 34.8793 0.00148432 34.7713 0.000905959C34.6433 0 34.5149 0 34.3869 0Z" fill="#E4E4E4"/>
<path d="M34.3873 0.799805L34.766 0.800484C34.8683 0.801164 34.9709 0.802296 35.074 0.805014C35.2536 0.809997 35.4633 0.819736 35.659 0.854842C35.8289 0.885418 35.9716 0.931848 36.1084 1.00161C36.3821 1.1408 36.6045 1.36345 36.7434 1.63736C36.8128 1.77326 36.859 1.91504 36.8895 2.08649C36.9244 2.27992 36.9342 2.49033 36.9389 2.67084C36.9419 2.77276 36.9432 2.87468 36.9434 2.97886C36.9446 3.10502 36.9446 3.23095 36.9446 3.35733V20.6426C36.9446 20.769 36.9446 20.8949 36.9437 21.0235C36.9432 21.1255 36.9418 21.2274 36.9391 21.3293C36.9341 21.5096 36.9244 21.72 36.8891 21.9157C36.8634 22.0713 36.8141 22.2222 36.743 22.363C36.6038 22.637 36.3811 22.8597 36.107 22.9988C35.9711 23.0681 35.8289 23.1145 35.6606 23.1448C35.4611 23.1804 35.2423 23.1901 35.0776 23.1947C34.9741 23.1969 34.8711 23.1985 34.7653 23.199C34.6396 23.1999 34.5132 23.1999 34.3873 23.1999H3.60798C3.48341 23.1999 3.35884 23.1999 3.232 23.199C3.13007 23.1985 3.02815 23.1972 2.92624 23.1949C2.75774 23.1904 2.53895 23.1804 2.34099 23.1451C2.18448 23.119 2.03283 23.0694 1.89119 22.9979C1.75532 22.9288 1.63131 22.8386 1.52382 22.7306C1.41599 22.623 1.32593 22.4989 1.25701 22.363C1.18584 22.2214 1.13651 22.0698 1.1107 21.9134C1.07537 21.718 1.0654 21.5085 1.06087 21.3295C1.05831 21.2272 1.0568 21.1249 1.05634 21.0226L1.05566 20.7221V3.27806L1.05612 2.97796C1.05658 2.8755 1.05809 2.77304 1.06065 2.67061C1.06563 2.49123 1.07537 2.28173 1.11093 2.08468C1.13679 1.9286 1.18612 1.77733 1.25724 1.63601C1.32631 1.5001 1.41652 1.37603 1.5245 1.26841C1.63225 1.16049 1.75639 1.07029 1.89232 1.00115C2.03362 0.930167 2.18479 0.880844 2.34077 0.854842C2.53668 0.819736 2.74664 0.809997 2.92647 0.805014C3.02868 0.80249 3.1309 0.80098 3.23314 0.800484L3.61296 0.799805H34.3873Z" fill="white"/>
<path d="M10.1095 8.10171C10.4275 7.70422 10.6431 7.17039 10.5863 6.625C10.121 6.6481 9.55346 6.93189 9.22459 7.32984C8.92948 7.67048 8.66833 8.22651 8.73628 8.74902C9.25857 8.79432 9.7804 8.48811 10.1095 8.10171ZM10.5804 8.85117C9.82162 8.80587 9.17703 9.2815 8.81487 9.2815C8.45249 9.2815 7.89782 8.87382 7.29784 8.88492C6.51713 8.89624 5.79282 9.3379 5.39646 10.04C4.58155 11.4443 5.1813 13.528 5.97401 14.6717C6.35882 15.238 6.82267 15.8608 7.43374 15.8384C8.01129 15.8157 8.23755 15.4647 8.93922 15.4647C9.64066 15.4647 9.8445 15.8384 10.4558 15.8271C11.0895 15.8157 11.4859 15.2608 11.8707 14.6946C12.3123 14.0491 12.4928 13.4263 12.5042 13.3923C12.4928 13.381 11.282 12.9164 11.2707 11.5235C11.2594 10.3571 12.2215 9.8022 12.2668 9.768C11.7235 8.96441 10.8746 8.87382 10.5801 8.85117" fill="#0A2540"/>
<path d="M18.1419 7.27246C19.7903 7.27246 20.9384 8.40876 20.9384 10.063C20.9384 11.7232 19.7668 12.8654 18.1007 12.8654H16.2757V15.7681H14.957V7.27246H18.1419ZM16.2757 11.7585H17.7886C18.9369 11.7585 19.5901 11.1405 19.5901 10.0689C19.5901 8.99763 18.9367 8.38521 17.7945 8.38521H16.2757V11.7585ZM21.2655 14.0076C21.2655 12.9184 22.0955 12.2944 23.6262 12.2002L25.2687 12.1001V11.629C25.2687 10.9405 24.8155 10.5636 24.0089 10.5636C23.3435 10.5636 22.8606 10.9049 22.761 11.4288H21.5714C21.607 10.328 22.643 9.52739 24.0443 9.52739C25.5513 9.52739 26.5345 10.3163 26.5345 11.5409V15.7679H25.316V14.7493H25.2866C24.9391 15.4145 24.1736 15.8324 23.3435 15.8324C22.1191 15.8324 21.2655 15.1027 21.2655 14.0076ZM25.2687 13.4602V12.9832L23.8028 13.0774C22.9784 13.1304 22.549 13.4364 22.549 13.972C22.549 14.4902 22.9963 14.8259 23.6968 14.8259C24.5915 14.8259 25.2687 14.2547 25.2687 13.4602ZM27.655 18.0402V17.0219C27.7374 17.0335 27.9374 17.0453 28.0434 17.0453C28.6261 17.0453 28.9559 16.7984 29.1561 16.1622L29.2739 15.7855L27.0425 9.60395H28.42L29.9744 14.6198H30.0039L31.5581 9.60395H32.9005L30.5866 16.0974C30.0567 17.587 29.4503 18.0758 28.1671 18.0758C28.0669 18.0758 27.7431 18.064 27.655 18.0402Z" fill="#0A2540"/>
</g>
<defs>
<clipPath id="clip0_24_866">
<rect width="38" height="24" fill="white"/>
</clipPath>
</defs>
</svg>
