<svg width="38" height="24" viewBox="0 0 38 24" fill="none" xmlns="http://www.w3.org/2000/svg">
<g clip-path="url(#clip0_24_846)">
<path opacity="0.07" d="M35 0H3C1.3 0 0 1.3 0 3V21C0 22.7 1.4 24 3 24H35C36.7 24 38 22.7 38 21V3C38 1.3 36.6 0 35 0Z" fill="#0A2540"/>
<path d="M35 1C36.1 1 37 1.9 37 3V21C37 22.1 36.1 23 35 23H3C1.9 23 1 22.1 1 21V3C1 1.9 1.9 1 3 1H35Z" fill="white"/>
<path d="M14.9998 19C18.8657 19 21.9998 15.866 21.9998 12C21.9998 8.13401 18.8657 5 14.9998 5C11.1338 5 7.99976 8.13401 7.99976 12C7.99976 15.866 11.1338 19 14.9998 19Z" fill="#EB001B"/>
<path d="M22.9998 19C26.8657 19 29.9998 15.866 29.9998 12C29.9998 8.13401 26.8657 5 22.9998 5C19.1338 5 15.9998 8.13401 15.9998 12C15.9998 15.866 19.1338 19 22.9998 19Z" fill="#F79E1B"/>
<path d="M21.9998 11.9998C21.9998 9.5998 20.7998 7.4998 18.9998 6.2998C17.1998 7.5998 15.9998 9.6998 15.9998 11.9998C15.9998 14.2998 17.1998 16.4998 18.9998 17.6998C20.7998 16.4998 21.9998 14.3998 21.9998 11.9998Z" fill="#FF5F00"/>
</g>
<defs>
<clipPath id="clip0_24_846">
<rect width="38" height="24" fill="white"/>
</clipPath>
</defs>
</svg>
